<svg width="333" height="408" viewBox="0 0 333 408" fill="none" xmlns="http://www.w3.org/2000/svg">
<path d="M275.662 378.646C273.2 396.929 255.311 411.212 237.533 406.281C212.203 399.301 182.874 388.415 156.484 386.387C153.004 386.119 116.037 383.316 116.037 383.316C109.498 382.85 103.36 379.993 98.7933 375.29L29.1002 303.516C21.4838 295.673 19.4221 283.977 23.8976 274.002C23.8976 274.002 66.992 179.286 68.5925 174.361C70.1931 169.435 76.067 126.476 79.5478 103.397C80.4704 97.2813 83.4896 91.6748 88.0879 87.5382L170.533 13.3697C182.003 3.05135 199.807 4.58042 209.349 16.7034L278.607 104.688C282.526 109.668 284.534 115.856 284.563 122.192C284.642 138.861 286.018 173.085 295.233 195.128C304.199 216.569 320.652 239.725 329.251 251.119C332.551 255.492 333.056 261.406 330.269 266.122C324.2 276.398 312.209 296.128 295.233 321.443C283.53 338.897 278.107 360.473 275.662 378.646Z" fill="#8758FF"/>
<path d="M106.206 380.921C171.142 249.269 102.648 192.339 64.3978 168.766" stroke="#0C0C0C" stroke-width="12"/>
<path d="M294.343 336.444C252.98 239.929 192.491 238.595 130.224 253.717" stroke="#0C0C0C" stroke-width="12"/>
<path d="M194.27 247.045C132.447 92.2657 242.305 93.6001 203.61 2.86729" stroke="#0C0C0C" stroke-width="12"/>
</svg>
